<svg width="306" height="90" viewBox="0 0 306 90" fill="none" xmlns="http://www.w3.org/2000/svg">
<rect x="46" y="8" width="30" height="74" rx="15" fill="#F8FD99"/>
<rect x="92" width="30" height="90" rx="15" fill="#50A2FF"/>
<rect width="30" height="90" rx="15" fill="#11BB97"/>
<path d="M171.737 62L169.137 53.35H156.087L153.487 62H148.687L159.737 27.55H165.737L176.737 62H171.737ZM157.237 49.5H167.987L162.637 31.5L157.237 49.5ZM186.399 35.65V62H181.799V35.65H186.399ZM184.049 23C185.015 23 185.799 23.3 186.399 23.9C186.999 24.5 187.299 25.25 187.299 26.15C187.299 27.05 186.999 27.8 186.399 28.4C185.799 28.9667 185.015 29.25 184.049 29.25C183.115 29.25 182.349 28.9667 181.749 28.4C181.149 27.8 180.849 27.05 180.849 26.15C180.849 25.25 181.149 24.5 181.749 23.9C182.349 23.3 183.115 23 184.049 23ZM207.36 35.05C208.293 35.05 209.16 35.15 209.96 35.35L209.11 39.85C208.31 39.65 207.543 39.55 206.81 39.55C205.177 39.55 203.86 40.15 202.86 41.35C201.86 42.55 201.077 44.4167 200.51 46.95V62H195.91V35.65H199.86L200.31 41C201.01 39.0333 201.96 37.55 203.16 36.55C204.36 35.55 205.76 35.05 207.36 35.05ZM227.297 35.05C230.664 35.05 233.131 36.25 234.697 38.65C236.264 41.05 237.047 44.4333 237.047 48.8C237.047 52.9333 236.147 56.2667 234.347 58.8C232.547 61.3333 229.997 62.6 226.697 62.6C223.764 62.6 221.464 61.6 219.797 59.6V72.1L215.197 72.65V35.65H219.147L219.497 39.2C220.464 37.8667 221.631 36.85 222.997 36.15C224.364 35.4167 225.797 35.05 227.297 35.05ZM225.597 58.85C229.931 58.85 232.097 55.5 232.097 48.8C232.097 42.0667 230.114 38.7 226.147 38.7C224.847 38.7 223.664 39.0833 222.597 39.85C221.531 40.6167 220.597 41.6 219.797 42.8V55.65C220.464 56.6833 221.297 57.4833 222.297 58.05C223.297 58.5833 224.397 58.85 225.597 58.85ZM250.135 62.6C248.435 62.6 247.085 62.1 246.085 61.1C245.118 60.0667 244.635 58.6333 244.635 56.8V25.05L249.235 24.5V56.7C249.235 57.4333 249.351 57.9667 249.585 58.3C249.851 58.6333 250.285 58.8 250.885 58.8C251.518 58.8 252.085 58.7 252.585 58.5L253.785 61.7C252.685 62.3 251.468 62.6 250.135 62.6ZM277.039 55.85C277.039 56.9167 277.222 57.7167 277.589 58.25C277.956 58.75 278.506 59.1333 279.239 59.4L278.189 62.6C276.822 62.4333 275.722 62.05 274.889 61.45C274.056 60.85 273.439 59.9167 273.039 58.65C271.272 61.2833 268.656 62.6 265.189 62.6C262.589 62.6 260.539 61.8667 259.039 60.4C257.539 58.9333 256.789 57.0167 256.789 54.65C256.789 51.85 257.789 49.7 259.789 48.2C261.822 46.7 264.689 45.95 268.389 45.95H272.439V44C272.439 42.1333 271.989 40.8 271.089 40C270.189 39.2 268.806 38.8 266.939 38.8C265.006 38.8 262.639 39.2667 259.839 40.2L258.689 36.85C261.956 35.65 264.989 35.05 267.789 35.05C270.889 35.05 273.206 35.8167 274.739 37.35C276.272 38.85 277.039 41 277.039 43.8V55.85ZM266.239 59.15C268.872 59.15 270.939 57.7833 272.439 55.05V49H268.989C264.122 49 261.689 50.8 261.689 54.4C261.689 55.9667 262.072 57.15 262.839 57.95C263.606 58.75 264.739 59.15 266.239 59.15ZM296.304 62.15C295.271 65.2167 293.821 67.6333 291.954 69.4C290.121 71.2 287.487 72.2833 284.054 72.65L283.554 69.05C285.287 68.75 286.671 68.3167 287.704 67.75C288.737 67.1833 289.554 66.45 290.154 65.55C290.787 64.6833 291.371 63.5 291.904 62H290.354L281.504 35.65H286.404L293.454 58.65L300.354 35.65H305.104L296.304 62.15Z" fill="white"/>
</svg>
