<svg width="160" height="49" viewBox="0 0 160 49" fill="none" xmlns="http://www.w3.org/2000/svg">
<path d="M4.89489 38H0.278409L13.6307 1.63636H18.1761L31.5284 38H26.9119L16.0455 7.3892H15.7614L4.89489 38ZM6.59943 23.7955H25.2074V27.7017H6.59943V23.7955ZM36.9173 38V10.7273H41.1076V38H36.9173ZM39.0479 6.18182C38.2312 6.18182 37.5269 5.90365 36.935 5.3473C36.355 4.79096 36.065 4.12216 36.065 3.34091C36.065 2.55966 36.355 1.89086 36.935 1.33452C37.5269 0.778172 38.2312 0.5 39.0479 0.5C39.8647 0.5 40.5631 0.778172 41.1431 1.33452C41.735 1.89086 42.0309 2.55966 42.0309 3.34091C42.0309 4.12216 41.735 4.79096 41.1431 5.3473C40.5631 5.90365 39.8647 6.18182 39.0479 6.18182ZM48.7825 38V10.7273H52.8308V14.8466H53.1149C53.612 13.4972 54.5117 12.4022 55.8137 11.5618C57.1158 10.7214 58.5836 10.3011 60.2172 10.3011C60.5249 10.3011 60.9096 10.3071 61.3713 10.3189C61.8329 10.3307 62.1821 10.3485 62.4189 10.3722V14.6335C62.2768 14.598 61.9513 14.5447 61.4423 14.4737C60.9451 14.3909 60.4184 14.3494 59.862 14.3494C58.5363 14.3494 57.3526 14.6276 56.3109 15.1839C55.2811 15.7285 54.4643 16.486 53.8606 17.4567C53.2688 18.4155 52.9728 19.5104 52.9728 20.7415V38H48.7825ZM67.386 48.2273V10.7273H71.4343V15.0597H71.9315C72.2392 14.5862 72.6654 13.9825 73.2099 13.2486C73.7662 12.5028 74.5593 11.84 75.5891 11.2599C76.6308 10.6681 78.0394 10.3722 79.815 10.3722C82.1114 10.3722 84.1355 10.9463 85.8874 12.0945C87.6393 13.2427 89.0065 14.8703 89.989 16.9773C90.9715 19.0843 91.4627 21.5701 91.4627 24.4347C91.4627 27.3229 90.9715 29.8265 89.989 31.9453C89.0065 34.0523 87.6452 35.6858 85.9052 36.8459C84.1651 37.9941 82.1587 38.5682 79.886 38.5682C78.1341 38.5682 76.7314 38.2782 75.6779 37.6982C74.6244 37.1063 73.8136 36.4375 73.2454 35.6918C72.6772 34.9342 72.2392 34.3068 71.9315 33.8097H71.5763V48.2273H67.386ZM71.5053 24.3636C71.5053 26.4233 71.8072 28.2403 72.4109 29.8146C73.0146 31.3771 73.8964 32.6023 75.0565 33.4901C76.2165 34.366 77.637 34.804 79.3178 34.804C81.0697 34.804 82.5316 34.3423 83.7035 33.419C84.8872 32.4839 85.775 31.2292 86.3668 29.6548C86.9705 28.0687 87.2724 26.3049 87.2724 24.3636C87.2724 22.446 86.9764 20.7178 86.3846 19.179C85.8046 17.6283 84.9227 16.4032 83.739 15.5036C82.5671 14.5921 81.0934 14.1364 79.3178 14.1364C77.6133 14.1364 76.181 14.5684 75.021 15.4325C73.8609 16.2848 72.985 17.4804 72.3931 19.0192C71.8013 20.5462 71.5053 22.3277 71.5053 24.3636ZM102.045 1.63636V38H97.8548V1.63636H102.045ZM117.746 38.6392C116.017 38.6392 114.449 38.3137 113.04 37.6626C111.632 36.9998 110.513 36.0469 109.684 34.804C108.856 33.5492 108.442 32.0341 108.442 30.2585C108.442 28.696 108.749 27.4295 109.365 26.4588C109.98 25.4763 110.803 24.7069 111.833 24.1506C112.863 23.5942 113.999 23.1799 115.242 22.9077C116.497 22.6236 117.757 22.3987 119.024 22.233C120.681 22.0199 122.025 21.8601 123.055 21.7536C124.096 21.6352 124.854 21.4399 125.327 21.1676C125.813 20.8954 126.055 20.4219 126.055 19.7472V19.6051C126.055 17.8532 125.576 16.492 124.617 15.5213C123.67 14.5507 122.232 14.0653 120.302 14.0653C118.302 14.0653 116.733 14.5033 115.597 15.3793C114.461 16.2552 113.662 17.1903 113.2 18.1847L109.223 16.7642C109.933 15.107 110.88 13.8168 112.064 12.8935C113.259 11.9583 114.561 11.3073 115.97 10.9403C117.39 10.5616 118.787 10.3722 120.16 10.3722C121.036 10.3722 122.042 10.4787 123.179 10.6918C124.327 10.893 125.434 11.3132 126.499 11.9524C127.576 12.5916 128.47 13.5563 129.18 14.8466C129.89 16.1368 130.246 17.8651 130.246 20.0312V38H126.055V34.3068H125.842C125.558 34.8987 125.085 35.532 124.422 36.2067C123.759 36.8814 122.877 37.4555 121.776 37.929C120.675 38.4025 119.332 38.6392 117.746 38.6392ZM118.385 34.875C120.042 34.875 121.439 34.5495 122.575 33.8984C123.723 33.2474 124.587 32.407 125.167 31.3771C125.759 30.3473 126.055 29.2642 126.055 28.1278V24.2926C125.878 24.5057 125.487 24.701 124.883 24.8786C124.291 25.0443 123.605 25.1922 122.824 25.3224C122.054 25.4408 121.303 25.5473 120.569 25.642C119.847 25.7249 119.261 25.7959 118.811 25.8551C117.722 25.9972 116.704 26.228 115.757 26.5476C114.822 26.8554 114.064 27.3229 113.484 27.9503C112.916 28.5658 112.632 29.4062 112.632 30.4716C112.632 31.9276 113.171 33.0284 114.248 33.7741C115.337 34.508 116.716 34.875 118.385 34.875ZM139.616 48.2273C138.906 48.2273 138.273 48.1681 137.716 48.0497C137.16 47.9432 136.775 47.8366 136.562 47.7301L137.627 44.0369C138.645 44.2973 139.545 44.392 140.326 44.321C141.108 44.25 141.8 43.9008 142.404 43.2734C143.019 42.6579 143.582 41.6577 144.091 40.2727L144.872 38.142L134.787 10.7273H139.332L146.86 32.4602H147.145L154.673 10.7273H159.218L147.642 41.9773C147.121 43.3859 146.476 44.5518 145.706 45.4751C144.937 46.4103 144.043 47.1027 143.025 47.5526C142.019 48.0024 140.883 48.2273 139.616 48.2273Z" fill="white"/>
</svg>
