<svg width="204" height="62" viewBox="0 0 204 62" fill="none" xmlns="http://www.w3.org/2000/svg">
<path d="M83.263 46L80.923 38.215H69.178L66.838 46H62.518L72.463 14.995H77.863L87.763 46H83.263ZM70.213 34.75H79.888L75.073 18.55L70.213 34.75ZM96.4589 22.285V46H92.3189V22.285H96.4589ZM94.3439 10.9C95.2139 10.9 95.9189 11.17 96.4589 11.71C96.9989 12.25 97.2689 12.925 97.2689 13.735C97.2689 14.545 96.9989 15.22 96.4589 15.76C95.9189 16.27 95.2139 16.525 94.3439 16.525C93.5039 16.525 92.8139 16.27 92.2739 15.76C91.7339 15.22 91.4639 14.545 91.4639 13.735C91.4639 12.925 91.7339 12.25 92.2739 11.71C92.8139 11.17 93.5039 10.9 94.3439 10.9ZM115.324 21.745C116.164 21.745 116.944 21.835 117.664 22.015L116.899 26.065C116.179 25.885 115.489 25.795 114.829 25.795C113.359 25.795 112.174 26.335 111.274 27.415C110.374 28.495 109.669 30.175 109.159 32.455V46H105.019V22.285H108.574L108.979 27.1C109.609 25.33 110.464 23.995 111.544 23.095C112.624 22.195 113.884 21.745 115.324 21.745ZM133.268 21.745C136.298 21.745 138.518 22.825 139.928 24.985C141.338 27.145 142.043 30.19 142.043 34.12C142.043 37.84 141.233 40.84 139.613 43.12C137.993 45.4 135.698 46.54 132.728 46.54C130.088 46.54 128.018 45.64 126.518 43.84V55.09L122.378 55.585V22.285H125.933L126.248 25.48C127.118 24.28 128.168 23.365 129.398 22.735C130.628 22.075 131.918 21.745 133.268 21.745ZM131.738 43.165C135.638 43.165 137.588 40.15 137.588 34.12C137.588 28.06 135.803 25.03 132.233 25.03C131.063 25.03 129.998 25.375 129.038 26.065C128.078 26.755 127.238 27.64 126.518 28.72V40.285C127.118 41.215 127.868 41.935 128.768 42.445C129.668 42.925 130.658 43.165 131.738 43.165ZM153.821 46.54C152.291 46.54 151.076 46.09 150.176 45.19C149.306 44.26 148.871 42.97 148.871 41.32V12.745L153.011 12.25V41.23C153.011 41.89 153.116 42.37 153.326 42.67C153.566 42.97 153.956 43.12 154.496 43.12C155.066 43.12 155.576 43.03 156.026 42.85L157.106 45.73C156.116 46.27 155.021 46.54 153.821 46.54ZM178.035 40.465C178.035 41.425 178.2 42.145 178.53 42.625C178.86 43.075 179.355 43.42 180.015 43.66L179.07 46.54C177.84 46.39 176.85 46.045 176.1 45.505C175.35 44.965 174.795 44.125 174.435 42.985C172.845 45.355 170.49 46.54 167.37 46.54C165.03 46.54 163.185 45.88 161.835 44.56C160.485 43.24 159.81 41.515 159.81 39.385C159.81 36.865 160.71 34.93 162.51 33.58C164.34 32.23 166.92 31.555 170.25 31.555H173.895V29.8C173.895 28.12 173.49 26.92 172.68 26.2C171.87 25.48 170.625 25.12 168.945 25.12C167.205 25.12 165.075 25.54 162.555 26.38L161.52 23.365C164.46 22.285 167.19 21.745 169.71 21.745C172.5 21.745 174.585 22.435 175.965 23.815C177.345 25.165 178.035 27.1 178.035 29.62V40.465ZM168.315 43.435C170.685 43.435 172.545 42.205 173.895 39.745V34.3H170.79C166.41 34.3 164.22 35.92 164.22 39.16C164.22 40.57 164.565 41.635 165.255 42.355C165.945 43.075 166.965 43.435 168.315 43.435ZM195.374 46.135C194.444 48.895 193.139 51.07 191.459 52.66C189.809 54.28 187.439 55.255 184.349 55.585L183.899 52.345C185.459 52.075 186.704 51.685 187.634 51.175C188.564 50.665 189.299 50.005 189.839 49.195C190.409 48.415 190.934 47.35 191.414 46H190.019L182.054 22.285H186.464L192.809 42.985L199.019 22.285H203.294L195.374 46.135Z" fill="white"/>
<path d="M24.5417 31C18.0834 31 12.9167 36.1667 12.9167 42.625C12.9167 49.0833 18.0834 54.25 24.5417 54.25C31 54.25 36.1667 49.0833 36.1667 42.625C36.1667 36.1667 31 31 24.5417 31Z" fill="white"/>
<path d="M31 7.75V42.625H36.1667V18.0833L50.375 21.9583V12.9167L31 7.75Z" fill="white"/>
</svg>
